HIERARCHY
ROOT root
{
	OFFSET 0.000000 0.000000 0.000000
	CHANNELS 6 Xposition Yposition Zposition Zrotation Yrotation Xrotation
	JOINT lhip
	{
		OFFSET 0.058581 -0.082280 -0.017664
		CHANNELS 3 Zrotation Yrotation Xrotation
		JOINT lknee
		{
			OFFSET 0.043451 -0.386469 0.008037
			CHANNELS 3 Zrotation Yrotation Xrotation
			JOINT lankle
			{
				OFFSET -0.014790 -0.426874 -0.037428
				CHANNELS 3 Zrotation Yrotation Xrotation
				JOINT ltoe
				{
					OFFSET 0.041054 -0.060286 0.122042
					CHANNELS 3 Zrotation Yrotation Xrotation
					End Site
					{
						OFFSET 0.000000 0.000000 0.000000
					}
				}
			}
		}
	}
	JOINT rhip
	{
		OFFSET -0.060310 -0.090513 -0.013543
		CHANNELS 3 Zrotation Yrotation Xrotation
		JOINT rknee
		{
			OFFSET -0.043257 -0.383688 -0.004843
			CHANNELS 3 Zrotation Yrotation Xrotation
			JOINT rankle
			{
				OFFSET 0.019056 -0.420046 -0.034562
				CHANNELS 3 Zrotation Yrotation Xrotation
				JOINT rtoe
				{
					OFFSET -0.034840 -0.062106 0.130323
					CHANNELS 3 Zrotation Yrotation Xrotation
					End Site
					{
						OFFSET 0.000000 0.000000 0.000000
					}
				}
			}
		}
	}
	JOINT lowerback
	{
		OFFSET 0.004439 0.124404 -0.038385
		CHANNELS 3 Zrotation Yrotation Xrotation
		JOINT upperback
		{
			OFFSET 0.004488 0.137956 0.026820
			CHANNELS 3 Zrotation Yrotation Xrotation
			JOINT chest
			{
				OFFSET -0.002265 0.056032 0.002855
				CHANNELS 3 Zrotation Yrotation Xrotation
				JOINT lowerneck
				{
					OFFSET -0.013390 0.211636 -0.033468
					CHANNELS 3 Zrotation Yrotation Xrotation
					JOINT upperneck
					{
						OFFSET 0.010113 0.088937 0.050410
						CHANNELS 3 Zrotation Yrotation Xrotation
						End Site
						{
							OFFSET 0.000000 0.000000 0.000000
						}
					}
				}
				JOINT lclavicle
				{
					OFFSET 0.071702 0.114000 -0.018898
					CHANNELS 3 Zrotation Yrotation Xrotation
					JOINT lshoulder
					{
						OFFSET 0.122921 0.045205 -0.019046
						CHANNELS 3 Zrotation Yrotation Xrotation
						JOINT lelbow
						{
							OFFSET 0.255332 -0.015649 -0.022946
							CHANNELS 3 Zrotation Yrotation Xrotation
							JOINT lwrist
							{
								OFFSET 0.265709 0.012698 -0.007375
								CHANNELS 3 Zrotation Yrotation Xrotation
								End Site
								{
									OFFSET 0.000000 0.000000 0.000000
								}
							}
						}
					}
				}
				JOINT rclavicle
				{
					OFFSET -0.082954 0.112472 -0.023707
					CHANNELS 3 Zrotation Yrotation Xrotation
					JOINT rshoulder
					{
						OFFSET -0.113228 0.046853 -0.008472
						CHANNELS 3 Zrotation Yrotation Xrotation
						JOINT relbow
						{
							OFFSET -0.260127 -0.014369 -0.031269
							CHANNELS 3 Zrotation Yrotation Xrotation
							JOINT rwrist
							{
								OFFSET -0.269108 0.006794 -0.006027
								CHANNELS 3 Zrotation Yrotation Xrotation
								End Site
								{
									OFFSET 0.000000 0.000000 0.000000
								}
							}
						}
					}
				}
			}
		}
	}
}
MOTION
Frames: 8
Frame Time: 0.033333
1.218518 1.138596 1.023144 -95.524469 -3.067867 84.604262 -8.297376 -7.324533 -2.107965 -2.672627 -9.460107 8.522972 9.491439 11.771320 -6.931557 0.000000 -0.000000 0.000000 -0.280302 2.563164 -0.283193 4.381050 7.416555 57.010585 11.457878 -3.677475 11.864414 0.000000 -0.000000 0.000000 -2.049318 3.335235 10.174345 -0.665016 0.430970 0.578796 -2.032643 0.948313 2.954047 -2.768835 6.052567 -5.333050 -2.735758 4.662498 1.700070 -24.637122 2.750975 -0.792835 -58.478550 -4.511078 9.723680 6.379840 -18.876008 7.573950 -9.357295 -4.243911 -5.817101 24.510081 -0.116866 0.380349 59.581393 1.318495 16.531801 -13.497587 22.186757 -4.608738 12.437970 5.823436 -9.882485 
1.185752 1.138442 1.024926 -94.461313 -2.517544 84.107267 -8.233394 -5.789593 1.271051 -2.479207 -11.465437 7.101501 9.022102 11.745411 -7.961847 0.000000 -0.000000 0.000000 0.056765 2.938769 -4.457683 4.138987 4.943125 60.423813 8.264597 -4.068747 3.939307 0.000000 -0.000000 0.000000 -1.360095 1.722124 10.683550 -0.617644 0.546297 0.228898 -2.088014 0.674041 3.139283 -2.333754 6.900068 -5.048106 -3.198666 4.227983 2.133800 -23.995628 2.272861 -0.680879 -58.506837 -4.954847 9.646023 6.478530 -20.533599 8.177260 -8.917969 -4.138985 -6.284187 24.622293 -0.372971 0.382915 59.534805 0.577431 15.660169 -13.441032 22.674876 -4.471706 12.611167 5.561844 -10.231838 
1.155618 1.139164 1.025327 -92.831051 -1.893367 83.548987 -7.936490 -5.279652 4.033489 -2.452553 -13.109016 6.749294 8.801545 11.863997 -9.128702 0.000000 -0.000000 0.000000 0.187090 3.349391 -8.641630 3.026558 1.925045 61.541791 6.576782 -5.668820 -3.484183 0.000000 -0.000000 0.000000 -0.896593 0.218475 11.763268 -0.375490 0.332238 -0.154775 -1.832059 0.032142 3.380043 -1.904681 7.637032 -5.492532 -3.706964 3.731301 2.342760 -23.824006 1.608292 -0.676280 -58.425494 -5.808074 9.695352 6.262628 -22.097315 7.797251 -7.085824 -3.577397 -6.434141 24.728403 -0.263829 0.290308 59.424892 0.079833 14.819633 -14.261130 23.528894 -5.908070 10.262640 5.958682 -10.309941 
1.117120 1.140763 1.024577 -91.813504 -1.191107 83.103435 -7.462324 -3.621485 7.529205 -1.873173 -15.332854 5.741040 7.939108 11.595364 -10.748103 0.000000 -0.000000 0.000000 0.413897 4.265133 -13.162502 1.327284 -0.505170 59.157629 5.542644 -7.374870 -10.886187 0.000000 -0.000000 0.000000 -0.432553 -1.298769 12.753881 -0.164623 0.602668 -0.569493 -1.506443 -0.373387 3.668485 -1.635255 8.630807 -5.981259 -4.110552 3.331615 2.419717 -23.644894 1.333090 -0.928923 -58.020278 -7.097407 9.748364 6.300662 -23.653913 7.471747 -5.989701 -3.673067 -6.007817 24.978446 -0.487034 -0.055848 59.270421 -0.350229 14.240171 -14.460121 23.817251 -6.384550 9.883326 6.117440 -10.512713 
1.094011 1.142121 1.023167 -91.438653 -0.746613 82.942718 -6.980825 -2.794303 9.630862 -1.519183 -16.061300 4.969289 7.460694 11.509942 -11.676473 0.000000 -0.000000 0.000000 0.526093 4.922368 -15.394439 0.695031 -1.638523 55.708293 5.351290 -7.840128 -13.990077 0.000000 -0.000000 0.000000 -0.128595 -1.984164 13.078381 -0.060293 0.758389 -0.559313 -1.287107 -0.545373 3.559625 -1.639306 9.008663 -5.843549 -4.013901 3.076190 2.484198 -23.193906 0.990446 -0.667339 -58.224100 -7.776703 10.005373 6.385900 -25.062200 7.516177 -6.078073 -4.069378 -6.291083 24.879090 -0.321895 0.202190 59.437175 -0.610126 13.937558 -14.840341 23.904519 -6.456506 9.907070 6.040570 -10.713969 
1.064079 1.143858 1.020610 -90.484541 -0.429974 82.969003 -6.515401 -1.930874 11.910389 -1.314156 -17.166592 4.392238 6.994022 11.584294 -12.934120 0.000000 -0.000000 0.000000 0.332786 5.162720 -17.658365 0.099224 -2.514957 48.933364 4.938143 -8.420728 -15.725067 0.000000 -0.000000 0.000000 -0.027824 -2.823726 13.442115 -0.035196 0.640901 -0.736214 -0.923829 -0.737807 3.514244 -1.578159 9.279488 -5.758063 -3.904883 3.003815 2.632745 -22.759405 0.695623 -0.492808 -58.284788 -8.788099 10.163374 6.236503 -26.241586 7.404972 -6.205547 -4.294724 -6.870123 24.841678 -0.355725 0.380946 59.518922 -0.652546 13.717294 -14.798373 23.905121 -6.468776 9.940657 6.027749 -10.807214 
1.034513 1.146218 1.017039 -89.533583 -0.149208 83.310102 -5.844483 -1.352662 13.734101 -1.245640 -17.609800 3.707506 6.652582 11.409339 -14.839079 0.000000 -0.000000 0.000000 0.200825 5.179904 -19.281836 -0.147343 -2.770957 40.366927 5.382917 -9.077764 -16.236192 0.000000 -0.000000 0.000000 0.105779 -3.335290 13.697624 0.020293 0.507989 -1.018736 -0.560591 -1.184139 3.561480 -1.799547 9.644811 -6.427250 -3.705126 2.979594 2.884134 -22.415668 0.440691 -0.367193 -58.283778 -9.884476 10.311779 6.193289 -27.120774 7.311661 -5.593430 -4.649387 -7.336829 24.959064 -0.412259 0.194430 59.478168 -0.506504 13.801266 -14.688227 23.506033 -6.103581 9.324114 6.163019 -10.513746 
1.003735 1.148687 1.013198 -88.706169 -0.211288 83.634598 -5.385224 -0.252474 15.506528 -1.058452 -18.033163 3.257327 5.931971 10.686182 -15.452943 0.000000 -0.000000 0.000000 0.249588 4.518603 -19.607751 -1.161529 -2.913267 29.728863 5.734807 -8.932306 -15.828736 0.000000 -0.000000 0.000000 -0.012179 -3.603127 13.912946 -0.153639 0.268295 -1.196549 -0.174562 -1.375223 3.564652 -2.060057 9.791063 -6.865075 -3.279415 2.983548 3.109125 -22.181646 0.448865 -0.502919 -58.178229 -10.639923 10.470172 6.218201 -28.169890 7.106584 -4.379094 -5.385377 -6.956608 25.141408 -0.482476 0.270663 59.553279 -0.362273 13.731598 -14.563473 23.099508 -6.126186 8.827269 6.024724 -10.191869 
